# xmcd CD database file
#
# Track frame offsets:
#	150
#	6623
#	12692
#	19504
#	25013
#
# Disc length: 422 seconds
#
# Revision: 0
# Processed by: cddbd v1.5.2PL0 Copyright (c) Steve Scherf et al.
# Submitted via: CDex 1.51
#
DISCID=3301a405
DTITLE=Amanda Marshall - Everybody's got a Story
DYEAR=2002
DGENRE=Blues
TTITLE0=Everybody's got a Story
TTITLE1=The Gypsy
TTITLE2=Sunday morning after
TTITLE3=Love is my witness
TTITLE4=Dizzy
EXTD=YEAR: 2002
EXTT0=
EXTT1=
EXTT2=
EXTT3=
EXTT4=
PLAYORDER=
